<?xml version="1.0" encoding="UTF-8" standalone="no"?>
<!-- Created with Inkscape (http://www.inkscape.org/) -->

<svg
   width="48"
   height="48"
   viewBox="0 0 12.7 12.7"
   version="1.1"
   id="svg269"
   xmlns="http://www.w3.org/2000/svg"
   xmlns:svg="http://www.w3.org/2000/svg">
  <defs
     id="defs266" />
  <g
     id="layer1">
    <g
       id="g253"
       transform="matrix(0.01053643,0,0,0.01053643,-2.7717097,-0.88413009)">
      <path
         style="fill:#e0e2e3;stroke-width:1.33333"
         d="m 480.21859,1263.0022 c -0.79207,-2.0179 -6.2759,-17.4689 -12.1863,-34.3355 -5.9104,-16.8667 -11.93554,-33.8701 -13.38924,-37.7853 C 452.02428,1183.8281 452,1178.9061 452,655.21469 V 126.66667 h 425.33333 425.33337 v 527.04621 527.04622 l -2.8178,7.9538 c -1.5498,4.3746 -5.4826,15.4538 -8.7395,24.6204 -3.2569,9.1667 -7.4245,21.1667 -9.2613,26.6667 -1.8369,5.5 -3.903,11.2 -4.5914,12.6667 -0.6884,1.4666 -2.0631,5.0666 -3.055,8 l -1.8034,5.3333 -395.36979,0.3355 -395.36982,0.3356 z M 1276,829.33333 v -4 H 1072.6667 869.33333 V 484.66667 144 h -4 -4 V 488.66667 833.33333 H 1068.6667 1276 Z m 35.5516,175.10717 c -0.491,-0.491 -0.8874,-200.14103 -0.8809,-443.66665 L 1310.6826,118 1185.3413,117.65987 1060,117.31973 v -7.9932 -7.9932 h 132.1318 c 118.8344,0 132.5882,0.21657 136.6667,2.15192 l 4.5348,2.15193 v 89.21325 89.21325 l -6,16.22687 -6,16.22686 v 29.16228 c 0,20.1913 0.4927,30.05819 1.6015,32.07463 0.8808,1.60179 1.7969,4.09215 2.0357,5.53413 0.2388,1.44199 1.3319,3.99199 2.4292,5.66667 1.0973,1.67468 1.69,3.04488 1.3172,3.04488 -0.3729,0 0.4627,2.89401 1.8569,6.43113 1.4982,3.80082 2.7172,10.75378 2.9806,17 L 1334,426 l 5.6667,0.41 5.6666,0.41 v 9.92333 9.92334 h -6.0254 -6.0256 l 0.3589,29.58118 0.3588,29.58119 5.3333,0.0855 5.3334,0.0855 0.3894,10.33334 0.3894,10.33333 h -6.1039 -6.104 l 0.3812,12.84696 0.3812,12.84697 7.3333,-4.2e-4 c 5.7226,-3.4e-4 7.428,-0.47924 7.7644,-2.1803 0.2372,-1.19893 1.2872,-2.17988 2.3334,-2.17988 1.5321,0 1.9022,2.85354 1.9022,14.66667 0,12.14815 -0.3434,14.66667 -2,14.66667 -1.1,0 -2,-0.9 -2,-2 0,-1.55556 -1.7777,-2 -8,-2 h -8 v 9.93724 c 0,8.49962 -0.868,12.27013 -6,26.06276 -8.0986,21.76574 -8.0983,27.12385 0,48.46322 l 5.997,15.79656 V 836.69983 999.8065 l -3.5131,2.7635 c -2.5306,1.9908 -5.4509,2.7634 -10.4442,2.7634 -3.8122,0 -7.333,-0.4017 -7.8241,-0.8928 z"
         id="path202" />
      <path
         style="fill:#e3d702;stroke-width:1.33333"
         d="M 861.33333,488.66667 V 144 h 4 4 V 484.66667 825.33333 H 1072.6667 1276 v 4 4 H 1068.6667 861.33333 Z"
         id="path200" />
    </g>
  </g>
</svg>
